<mxfile host="65bd71144e">
    <diagram id="pp11ufT2gKRncv8krnNC" name="Página-1">
        <mxGraphModel dx="893" dy="404" grid="1" gridSize="10" guides="1" tooltips="1" connect="1" arrows="1" fold="1" page="1" pageScale="1" pageWidth="827" pageHeight="1169" math="0" shadow="0">
            <root>
                <mxCell id="0"/>
                <mxCell id="1" parent="0"/>
                <mxCell id="4" style="edgeStyle=none;html=1;entryX=0.5;entryY=0;entryDx=0;entryDy=0;" parent="1" source="2" target="3" edge="1">
                    <mxGeometry relative="1" as="geometry"/>
                </mxCell>
                <mxCell id="2" value="&lt;b&gt;INÍCIO&lt;/b&gt;" style="ellipse;whiteSpace=wrap;html=1;" parent="1" vertex="1">
                    <mxGeometry x="160" y="40" width="70" height="40" as="geometry"/>
                </mxCell>
                <mxCell id="6" value="" style="edgeStyle=none;html=1;fontSize=10;" parent="1" source="3" target="5" edge="1">
                    <mxGeometry relative="1" as="geometry"/>
                </mxCell>
                <mxCell id="3" value="&lt;b&gt;&lt;font style=&quot;font-size: 10px;&quot;&gt;DIGITE OS ITENS DO ESTOQUE&lt;/font&gt;&lt;/b&gt;" style="shape=parallelogram;perimeter=parallelogramPerimeter;whiteSpace=wrap;html=1;fixedSize=1;" parent="1" vertex="1">
                    <mxGeometry x="120" y="110" width="150" height="40" as="geometry"/>
                </mxCell>
                <mxCell id="9" value="" style="edgeStyle=none;html=1;" edge="1" parent="1" source="5" target="8">
                    <mxGeometry relative="1" as="geometry"/>
                </mxCell>
                <mxCell id="10" value="" style="edgeStyle=none;html=1;" edge="1" parent="1" source="5" target="8">
                    <mxGeometry relative="1" as="geometry"/>
                </mxCell>
                <mxCell id="5" value="&lt;font style=&quot;font-size: 8px;&quot;&gt;&lt;span style=&quot;color: rgb(232, 234, 237); font-family: Roboto, Arial, sans-serif; font-variant-ligatures: none; letter-spacing: 0.1px; background-color: rgb(32, 33, 36);&quot;&gt;- Est_1 = Pão.&lt;/span&gt;&lt;br style=&quot;color: rgb(232, 234, 237); font-family: Roboto, Arial, sans-serif; font-variant-ligatures: none; letter-spacing: 0.1px; background-color: rgb(32, 33, 36);&quot;&gt;&lt;span style=&quot;color: rgb(232, 234, 237); font-family: Roboto, Arial, sans-serif; font-variant-ligatures: none; letter-spacing: 0.1px; background-color: rgb(32, 33, 36);&quot;&gt;   - Est_2 = Hambúrguer de siri.&lt;/span&gt;&lt;br style=&quot;color: rgb(232, 234, 237); font-family: Roboto, Arial, sans-serif; font-variant-ligatures: none; letter-spacing: 0.1px; background-color: rgb(32, 33, 36);&quot;&gt;&lt;span style=&quot;color: rgb(232, 234, 237); font-family: Roboto, Arial, sans-serif; font-variant-ligatures: none; letter-spacing: 0.1px; background-color: rgb(32, 33, 36);&quot;&gt;   - Est_3 = Folhas de Alface.&lt;/span&gt;&lt;br style=&quot;color: rgb(232, 234, 237); font-family: Roboto, Arial, sans-serif; font-variant-ligatures: none; letter-spacing: 0.1px; background-color: rgb(32, 33, 36);&quot;&gt;&lt;span style=&quot;color: rgb(232, 234, 237); font-family: Roboto, Arial, sans-serif; font-variant-ligatures: none; letter-spacing: 0.1px; background-color: rgb(32, 33, 36);&quot;&gt;   - Est_4 = Rodelas de Cebola.&lt;/span&gt;&lt;br style=&quot;color: rgb(232, 234, 237); font-family: Roboto, Arial, sans-serif; font-variant-ligatures: none; letter-spacing: 0.1px; background-color: rgb(32, 33, 36);&quot;&gt;&lt;span style=&quot;color: rgb(232, 234, 237); font-family: Roboto, Arial, sans-serif; font-variant-ligatures: none; letter-spacing: 0.1px; background-color: rgb(32, 33, 36);&quot;&gt;   - Est_5 = Fatias de Queijo.&lt;/span&gt;&lt;/font&gt;" style="shape=document;whiteSpace=wrap;html=1;boundedLbl=1;fontSize=10;align=left;" parent="1" vertex="1">
                    <mxGeometry x="127.5" y="180" width="135" height="100" as="geometry"/>
                </mxCell>
                <mxCell id="12" value="" style="edgeStyle=none;html=1;" edge="1" parent="1" source="8" target="11">
                    <mxGeometry relative="1" as="geometry"/>
                </mxCell>
                <mxCell id="8" value="&lt;span style=&quot;font-size: 10px;&quot;&gt;&lt;b&gt;DIGITE OS PEDIDOS&amp;nbsp;&lt;br&gt;DO DIA&lt;br&gt;&lt;/b&gt;&lt;/span&gt;" style="shape=parallelogram;perimeter=parallelogramPerimeter;whiteSpace=wrap;html=1;fixedSize=1;" vertex="1" parent="1">
                    <mxGeometry x="120" y="300" width="150" height="40" as="geometry"/>
                </mxCell>
                <mxCell id="11" value="&lt;font style=&quot;font-size: 8px;&quot;&gt;&lt;span style=&quot;color: rgb(232, 234, 237); font-family: Roboto, Arial, sans-serif; font-variant-ligatures: none; letter-spacing: 0.1px; background-color: rgb(32, 33, 36);&quot;&gt;- Ped_1 = Hamb. Siri.&lt;/span&gt;&lt;br style=&quot;color: rgb(232, 234, 237); font-family: Roboto, Arial, sans-serif; font-variant-ligatures: none; letter-spacing: 0.1px; background-color: rgb(32, 33, 36);&quot;&gt;&lt;span style=&quot;color: rgb(232, 234, 237); font-family: Roboto, Arial, sans-serif; font-variant-ligatures: none; letter-spacing: 0.1px; background-color: rgb(32, 33, 36);&quot;&gt;   - Ped_2 = Hamb. Sri Luxo.&lt;/span&gt;&lt;br style=&quot;color: rgb(232, 234, 237); font-family: Roboto, Arial, sans-serif; font-variant-ligatures: none; letter-spacing: 0.1px; background-color: rgb(32, 33, 36);&quot;&gt;&lt;span style=&quot;color: rgb(232, 234, 237); font-family: Roboto, Arial, sans-serif; font-variant-ligatures: none; letter-spacing: 0.1px; background-color: rgb(32, 33, 36);&quot;&gt;   - Ped_3 = Hamb.Siri Luxo Duplo.&lt;/span&gt;&lt;br style=&quot;color: rgb(232, 234, 237); font-family: Roboto, Arial, sans-serif; font-variant-ligatures: none; letter-spacing: 0.1px; background-color: rgb(32, 33, 36);&quot;&gt;&lt;span style=&quot;color: rgb(232, 234, 237); font-family: Roboto, Arial, sans-serif; font-variant-ligatures: none; letter-spacing: 0.1px; background-color: rgb(32, 33, 36);&quot;&gt;   - Ped_4 = Combo Cascudo.&lt;/span&gt;&lt;br style=&quot;color: rgb(232, 234, 237); font-family: Roboto, Arial, sans-serif; font-variant-ligatures: none; letter-spacing: 0.1px; background-color: rgb(32, 33, 36);&quot;&gt;&lt;br&gt;&lt;/font&gt;" style="shape=document;whiteSpace=wrap;html=1;boundedLbl=1;fontSize=10;align=left;" vertex="1" parent="1">
                    <mxGeometry x="127.5" y="360" width="135" height="90" as="geometry"/>
                </mxCell>
                <mxCell id="14" value="&lt;h6 style=&quot;text-align: justify;&quot;&gt;&lt;span style=&quot;background-color: initial;&quot;&gt;&lt;font face=&quot;Times New Roman&quot; style=&quot;font-size: 10px;&quot;&gt;Devesse fazer a contagem de ingredientes no estoque&amp;nbsp;&lt;br&gt;&lt;/font&gt;&lt;/span&gt;&lt;font face=&quot;Times New Roman&quot;&gt;&lt;span style=&quot;font-size: 10px;&quot;&gt;registar os valores da quantidade de ingredientes e armazena-lás,&lt;/span&gt;&lt;br&gt;&lt;span style=&quot;font-size: 10px;&quot;&gt;depois recolher a quantidade de pedidos realizados do dia, e realiar a som&lt;br&gt;s realização ss0&lt;/span&gt;&lt;/font&gt;&amp;nbsp;&lt;/h6&gt;" style="text;strokeColor=none;fillColor=none;html=1;fontSize=24;fontStyle=1;verticalAlign=middle;align=center;" vertex="1" parent="1">
                    <mxGeometry x="460" y="280" width="180" height="50" as="geometry"/>
                </mxCell>
            </root>
        </mxGraphModel>
    </diagram>
</mxfile>